<?xml version="1.0" standalone="no"?>
<!DOCTYPE svg PUBLIC "-//W3C//DTD SVG 20010904//EN"
 "http://www.w3.org/TR/2001/REC-SVG-20010904/DTD/svg10.dtd">
<svg version="1.0" xmlns="http://www.w3.org/2000/svg"
 width="512.000000pt" height="512.000000pt" viewBox="0 0 512.000000 512.000000"
 preserveAspectRatio="xMidYMid meet">
<metadata>
Created by potrace 1.11, written by Peter Selinger 2001-2013
</metadata>
<g transform="translate(0.000000,512.000000) scale(0.100000,-0.100000)"
fill="#000000" stroke="none">
<path d="M2305 5114 c-388 -55 -594 -114 -880 -254 -246 -121 -448 -264 -654
-465 -398 -388 -650 -870 -743 -1421 -20 -122 -23 -172 -23 -414 0 -242 3
-292 23 -414 75 -445 258 -853 539 -1201 97 -120 296 -316 413 -407 342 -265
737 -438 1166 -510 122 -20 172 -23 414 -23 242 0 292 3 414 23 429 72 824
245 1166 510 117 91 316 287 413 407 281 348 464 756 539 1201 20 122 23 172
23 414 0 242 -3 292 -23 414 -72 429 -245 824 -510 1166 -91 117 -287 316
-407 413 -340 275 -734 454 -1170 533 -122 23 -173 26 -405 29 -146 2 -278 1
-295 -1z m-671 -1379 c13 -9 32 -32 41 -50 15 -32 14 -51 -10 -289 -14 -140
-25 -257 -25 -260 0 -3 69 -6 154 -6 l154 0 6 38 c3 20 15 138 27 262 23 253
32 284 93 314 33 16 41 17 74 4 46 -17 82 -69 82 -117 0 -20 -9 -124 -20 -231
-11 -107 -20 -211 -20 -232 l0 -38 105 0 c127 0 155 -11 179 -71 19 -47 15
-82 -14 -117 -32 -39 -81 -52 -194 -52 l-105 0 -5 -42 c-6 -53 -56 -570 -56
-580 0 -5 43 -8 95 -8 66 0 105 -5 125 -15 68 -35 78 -131 21 -189 -31 -31
-33 -31 -149 -34 l-118 -4 -23 -256 c-13 -141 -29 -271 -36 -288 -16 -40 -64
-74 -104 -74 -41 0 -98 51 -107 95 -3 19 1 112 11 207 9 95 19 206 22 246 l6
72 -155 0 -156 0 -6 -52 c-3 -29 -10 -111 -16 -183 -14 -181 -31 -295 -47
-327 -15 -30 -60 -58 -93 -58 -34 0 -78 28 -95 60 -19 37 -19 107 0 296 8 82
17 174 20 206 l6 56 -115 4 c-114 3 -116 4 -146 33 -38 39 -48 90 -26 137 27
57 58 68 193 68 l118 0 28 303 c15 166 28 307 27 313 0 8 -34 13 -95 16 -108
4 -137 19 -168 81 -16 31 -17 42 -7 72 6 19 25 46 41 60 29 24 37 25 145 25
102 0 114 2 114 18 0 70 52 519 62 540 7 14 29 37 48 50 38 26 71 25 114 -3z
m2342 -2153 c61 -49 55 -140 -11 -170 -37 -17 -1233 -17 -1270 0 -59 27 -73
112 -26 159 l29 29 629 0 c580 0 630 -2 649 -18z"/>
<path d="M1615 2868 c-5 -24 -55 -557 -55 -590 0 -17 12 -18 155 -18 102 0
155 4 155 11 0 13 48 511 55 572 l6 47 -155 0 c-153 0 -156 0 -161 -22z"/>
</g>
</svg>
